<svg width="213" height="209" viewBox="0 0 213 209" fill="none" xmlns="http://www.w3.org/2000/svg">
<path d="M9.99908 143.108H22.1669V147.656H14.8713V158.08H21.3251V162.628H14.8713V177.359H9.98633V143.108H9.99908Z" fill="#4D4E56"/>
<path d="M29.2192 143.007H34.3975L41.2467 177.359H36.3745L34.997 169.721H28.4922L27.1147 177.359H22.3828L29.232 143.007H29.2192ZM34.2445 165.376L31.7319 151.62L29.2192 165.376H34.2445Z" fill="#4D4E56"/>
<path d="M44.002 143.108H48.8359V177.359H44.002V143.108Z" fill="#4D4E56"/>
<path d="M56.4758 147.656H51.7949V143.108H65.9397V147.656H61.3098V177.359H56.4758V147.656Z" fill="#4D4E56"/>
<path d="M68.7461 143.108H73.6311V157.84H80.4802V143.108H85.3142V177.359H80.4802V162.438H73.6311V177.359H68.7461V143.108Z" fill="#4D4E56"/>
<path d="M96.5385 176.131V171.039C98.7068 172.356 100.48 173.04 102.151 173.04C104.217 173.04 105.798 171.862 105.798 169.519V169.417C105.798 167.454 105.161 166.035 101.997 162.273C97.763 157.232 96.2324 155.079 96.2324 151.215V151.114C96.2324 146.073 99.6761 142.741 104.115 142.741C106.436 142.741 107.916 143.185 109.433 143.97V149.062C107.558 147.935 106.232 147.403 104.65 147.403C102.673 147.403 101.105 148.72 101.105 150.873V150.975C101.105 152.887 101.742 153.913 104.893 157.625C109.472 163.008 110.658 165.313 110.658 169.177V169.278C110.658 174.319 107.061 177.701 102.571 177.701C100.301 177.701 98.3369 177.068 96.513 176.131H96.5385Z" fill="#4D4E56"/>
<path d="M112.559 160.766V159.689C112.559 147.846 116.997 142.855 122.367 142.855C124.038 142.855 124.93 143.096 126.168 143.691V148.682C124.93 147.947 123.948 147.555 122.813 147.555C119.803 147.555 117.495 150.734 117.495 159.639V160.817C117.495 170.063 119.816 172.901 122.864 172.901C123.897 172.901 125.032 172.559 126.27 171.824V176.574C125.045 177.309 123.757 177.6 122.086 177.6C116.717 177.6 112.571 172.508 112.571 160.766H112.559Z" fill="#4D4E56"/>
<path d="M129.699 143.108H134.584V157.84H141.433V143.108H146.267V177.359H141.433V162.438H134.584V177.359H129.699V143.108Z" fill="#4D4E56"/>
<path d="M149.711 160.968V159.499C149.711 147.947 153.359 142.665 158.575 142.665C163.792 142.665 167.44 147.947 167.44 159.499V160.968C167.44 172.52 163.792 177.802 158.575 177.802C153.359 177.802 149.711 172.52 149.711 160.968ZM162.516 160.968V159.499C162.516 150.645 160.884 147.073 158.575 147.073C156.267 147.073 154.634 150.645 154.634 159.499V160.968C154.634 169.822 156.267 173.394 158.575 173.394C160.884 173.394 162.516 169.822 162.516 160.968Z" fill="#4D4E56"/>
<path d="M170.221 160.968V159.499C170.221 147.947 173.868 142.665 179.085 142.665C184.302 142.665 187.949 147.947 187.949 159.499V160.968C187.949 172.52 184.302 177.802 179.085 177.802C173.868 177.802 170.221 172.52 170.221 160.968ZM183.026 160.968V159.499C183.026 150.645 181.394 147.073 179.085 147.073C176.777 147.073 175.144 150.645 175.144 159.499V160.968C175.144 169.822 176.777 173.394 179.085 173.394C181.394 173.394 183.026 169.822 183.026 160.968Z" fill="#4D4E56"/>
<path d="M191.406 143.108H196.278V172.812H203.332V177.359H191.406V143.108Z" fill="#4D4E56"/>
<path d="M69.7546 193.838V195.561H62.6886V208.417H60.5586V193.838H69.7546Z" fill="#4D4E56"/>
<path d="M84.1545 201.134C84.1545 202.262 83.9504 203.275 83.555 204.212C83.1469 205.137 82.5984 205.935 81.8969 206.619C81.1954 207.29 80.3536 207.81 79.4098 208.177C78.4532 208.544 77.4328 208.722 76.3487 208.722C75.2646 208.722 74.2187 208.544 73.2749 208.177C72.3311 207.81 71.502 207.29 70.8005 206.619C70.099 205.948 69.5378 205.15 69.1424 204.212C68.7343 203.288 68.543 202.262 68.543 201.134C68.543 200.007 68.747 198.994 69.1424 198.056C69.5506 197.132 70.099 196.334 70.8005 195.65C71.502 194.978 72.3311 194.459 73.2749 194.092C74.2187 193.724 75.2391 193.547 76.3487 193.547C77.4584 193.547 78.4532 193.724 79.4098 194.092C80.3664 194.459 81.1954 194.978 81.8969 195.65C82.5984 196.321 83.1596 197.119 83.555 198.056C83.9632 198.981 84.1545 200.007 84.1545 201.134ZM70.6475 201.134C70.6475 202.059 70.8005 202.882 71.1066 203.604C71.4127 204.326 71.8209 204.934 72.3438 205.416C72.854 205.91 73.4662 206.29 74.1422 206.543C74.8309 206.809 75.5579 206.936 76.336 206.936C77.114 206.936 77.841 206.809 78.5297 206.543C79.2185 206.277 79.8179 205.91 80.3281 205.416C80.8383 204.922 81.2592 204.314 81.5653 203.604C81.8714 202.882 82.0245 202.059 82.0245 201.134C82.0245 200.21 81.8714 199.386 81.5653 198.664C81.2592 197.942 80.8511 197.334 80.3281 196.853C79.8179 196.359 79.2057 195.979 78.5297 195.726C77.841 195.46 77.114 195.333 76.336 195.333C75.5579 195.333 74.8309 195.46 74.1422 195.726C73.4534 195.992 72.854 196.359 72.3438 196.853C71.8336 197.347 71.4127 197.955 71.1066 198.664C70.8005 199.386 70.6475 200.21 70.6475 201.134Z" fill="#4D4E56"/>
<path d="M97.0617 193.838V208.417H94.9317V195.535H89.1667V198.917C89.1667 202.249 88.784 204.706 88.006 206.277C87.228 207.822 86.0546 208.582 84.4985 208.582C84.1286 208.582 83.797 208.557 83.5164 208.519C83.2358 208.468 82.968 208.392 82.7129 208.265L83.0318 206.543C83.2613 206.619 83.4654 206.669 83.6695 206.695C83.8735 206.72 84.0776 206.745 84.2817 206.745C85.0852 206.745 85.7102 206.277 86.1566 205.352C86.7943 204.009 87.1132 201.565 87.1132 198.018V193.825H97.0617V193.838Z" fill="#4D4E56"/>
<path d="M107.253 193.838V195.561H100.187V208.417H98.0566V193.838H107.253Z" fill="#4D4E56"/>
<path d="M121.666 201.134C121.666 202.262 121.462 203.275 121.067 204.212C120.659 205.137 120.11 205.935 119.409 206.619C118.707 207.29 117.865 207.81 116.922 208.177C115.965 208.544 114.945 208.722 113.86 208.722C112.776 208.722 111.73 208.544 110.787 208.177C109.843 207.81 109.014 207.29 108.312 206.619C107.611 205.948 107.05 205.15 106.654 204.212C106.246 203.288 106.055 202.262 106.055 201.134C106.055 200.007 106.259 198.994 106.654 198.056C107.062 197.132 107.611 196.334 108.312 195.65C109.014 194.978 109.843 194.459 110.787 194.092C111.73 193.724 112.751 193.547 113.86 193.547C114.97 193.547 115.965 193.724 116.922 194.092C117.878 194.459 118.707 194.978 119.409 195.65C120.11 196.321 120.671 197.119 121.067 198.056C121.475 198.981 121.666 200.007 121.666 201.134ZM108.159 201.134C108.159 202.059 108.312 202.882 108.618 203.604C108.924 204.326 109.333 204.934 109.856 205.416C110.366 205.91 110.978 206.29 111.654 206.543C112.343 206.809 113.07 206.936 113.848 206.936C114.626 206.936 115.353 206.809 116.041 206.543C116.73 206.277 117.33 205.91 117.84 205.416C118.35 204.922 118.771 204.314 119.077 203.604C119.383 202.882 119.536 202.059 119.536 201.134C119.536 200.21 119.383 199.386 119.077 198.664C118.771 197.942 118.363 197.334 117.84 196.853C117.33 196.359 116.717 195.979 116.041 195.726C115.353 195.46 114.626 195.333 113.848 195.333C113.07 195.333 112.343 195.46 111.654 195.726C110.965 195.992 110.366 196.359 109.856 196.853C109.345 197.347 108.924 197.955 108.618 198.664C108.312 199.386 108.159 200.21 108.159 201.134Z" fill="#4D4E56"/>
<path d="M132.06 193.547V195.612C132.608 195.523 133.195 195.472 133.833 195.472C134.738 195.472 135.555 195.612 136.256 195.903C136.97 196.182 137.557 196.574 138.029 197.068C138.501 197.562 138.871 198.145 139.113 198.816C139.355 199.488 139.483 200.21 139.483 200.995C139.483 201.78 139.355 202.502 139.113 203.174C138.871 203.845 138.501 204.428 138.029 204.934C137.557 205.441 136.958 205.834 136.256 206.112C135.542 206.391 134.738 206.543 133.833 206.543C133.208 206.543 132.621 206.492 132.06 206.404V208.418H129.955V206.404C129.394 206.492 128.795 206.543 128.183 206.543C127.251 206.543 126.448 206.404 125.746 206.112C125.045 205.834 124.458 205.441 123.974 204.934C123.502 204.428 123.132 203.845 122.889 203.174C122.647 202.502 122.52 201.78 122.52 200.995C122.52 200.21 122.647 199.488 122.889 198.816C123.132 198.145 123.502 197.562 123.974 197.068C124.445 196.574 125.045 196.182 125.746 195.903C126.448 195.624 127.264 195.472 128.183 195.472C128.795 195.472 129.381 195.523 129.955 195.612V193.547H132.06ZM129.955 197.334C129.662 197.271 129.356 197.233 129.05 197.22C128.744 197.208 128.438 197.195 128.144 197.195C127.022 197.195 126.155 197.524 125.555 198.17C124.943 198.816 124.637 199.754 124.637 200.982C124.637 202.211 124.943 203.148 125.555 203.794C126.167 204.44 127.035 204.77 128.144 204.77C128.438 204.77 128.744 204.77 129.05 204.744C129.356 204.732 129.662 204.694 129.955 204.63V197.322V197.334ZM132.06 204.643C132.353 204.706 132.659 204.744 132.965 204.757C133.272 204.77 133.578 204.782 133.871 204.782C134.993 204.782 135.848 204.453 136.46 203.807C137.072 203.161 137.379 202.224 137.379 200.995C137.379 199.766 137.072 198.829 136.46 198.183C135.848 197.537 134.981 197.208 133.871 197.208C133.578 197.208 133.272 197.208 132.965 197.233C132.659 197.246 132.353 197.284 132.06 197.347V204.656V204.643Z" fill="#4D4E56"/>
<path d="M146.383 193.838L152.607 208.417H150.388L148.487 203.997H141.804L139.993 208.417H137.799L144.036 193.838H146.383ZM142.492 202.249H147.811L145.26 195.903H145.056L142.48 202.249H142.492Z" fill="#4D4E56"/>
<path d="M91.8027 31.5653C104.723 19.3673 121.533 11.59 140.244 10.2347C130.296 3.77467 118.421 0 105.641 0C77.5815 0 53.8071 18.1387 45.5039 43.244C55.2483 38.0887 72.2373 31.084 91.8155 31.5653H91.8027Z" fill="#96C121"/>
<path d="M66.9433 78.1916L67.0198 77.7482C69.7492 62.9282 76.05 49.6536 84.9781 38.8489C72.9251 38.7729 59.4691 40.6476 44.7887 45.5496C43.2071 51.0469 42.3398 56.8482 42.3398 62.8522C42.3398 83.3976 52.2628 101.638 67.6192 113.114C65.0556 102.106 64.724 90.2629 66.9433 78.1789V78.1916Z" fill="#96C121"/>
<path d="M168.941 62.8646C168.941 42.5093 159.184 24.4213 144.083 12.9326C128.803 15.8966 115.436 23.0153 104.875 33.0346C120.589 36.2393 137.234 45.03 152.705 63.6753C152.705 63.6753 132.859 44.2953 98.5365 39.786C86.7131 53.9853 79.7236 72.39 79.4558 92.4286V92.8846C79.3155 103.132 80.9098 112.923 83.9836 121.955C90.7435 124.399 98.0263 125.729 105.641 125.729C140.601 125.729 168.941 97.584 168.941 62.8646Z" fill="#4D4E56"/>
</svg>
